PathFileType	4	(X/Y/Z)	C:\Users\Basilio\Documents\Thesis Gigler\squatting_fais\c3dfiles\044\SLS_front_pre3\markers_experimental.trc
DataRate	CameraRate	NumFrames	NumMarkers	Units	OrigDataRate	OrigDataStartFrame	OrigNumFrames
200.000000	200.000000	4	60	mm	200.000000	344	1376
Frame#	Time	FHD			LBHD			RBHD			C7			T10			CLAV			LSHO			LUUPA			LMUPA			LDUPA			LLEP			LMEP			LUL			LRFIN			RSHO			RUPA1			RMUPA			RDUPA			RLEP			RMEP			RUL			RUFIN			LASI			RASI			USACR			LSACR			RSACR			LTHI1			LTHI2			LTHI3			LTHI4			LLFC			LMFC			LTIB1			LTIB2			LTIB3			LTIB4			LLMAL			LMMAL			LHEE			LMT1			LMT2			LMT5			RTHI			RTHI2			RTHI3			RTHI4			RLFC			RMFC			RTIB1			RTIB2			RTIB3			RTIB4			RLMAL			RHEE			RMT1			RMT2			RMT5			LRAD			RMMAL			
		X1	Y1	Z1	X2	Y2	Z2	X3	Y3	Z3	X4	Y4	Z4	X5	Y5	Z5	X6	Y6	Z6	X7	Y7	Z7	X8	Y8	Z8	X9	Y9	Z9	X10	Y10	Z10	X11	Y11	Z11	X12	Y12	Z12	X13	Y13	Z13	X14	Y14	Z14	X15	Y15	Z15	X16	Y16	Z16	X17	Y17	Z17	X18	Y18	Z18	X19	Y19	Z19	X20	Y20	Z20	X21	Y21	Z21	X22	Y22	Z22	X23	Y23	Z23	X24	Y24	Z24	X25	Y25	Z25	X26	Y26	Z26	X27	Y27	Z27	X28	Y28	Z28	X29	Y29	Z29	X30	Y30	Z30	X31	Y31	Z31	X32	Y32	Z32	X33	Y33	Z33	X34	Y34	Z34	X35	Y35	Z35	X36	Y36	Z36	X37	Y37	Z37	X38	Y38	Z38	X39	Y39	Z39	X40	Y40	Z40	X41	Y41	Z41	X42	Y42	Z42	X43	Y43	Z43	X44	Y44	Z44	X45	Y45	Z45	X46	Y46	Z46	X47	Y47	Z47	X48	Y48	Z48	X49	Y49	Z49	X50	Y50	Z50	X51	Y51	Z51	X52	Y52	Z52	X53	Y53	Z53	X54	Y54	Z54	X55	Y55	Z55	X56	Y56	Z56	X57	Y57	Z57	X58	Y58	Z58	X59	Y59	Z59	X60	Y60	Z60	

345	1.72	-228.0276641845704	1800.994750976563	-1037.918579101563	-364.2406616210938	1764.069213867188	-1112.880615234375	-403.3791503906251	1752.562866210938	-951.7606201171877	-417.4518127441407	1570.166748046875	-1034.408447265625	-409.3461303710939	1266.787719726563	-1014.489562988281	-276.5633239746094	1540.619995117188	-1030.867553710938	-320.5733947753907	1586.637451171875	-1180.017700195313	-149.1324920654297	1555.08544921875	-1270.147216796875	-125.2158660888672	1565.219116210938	-1225.962280273438	-81.91667938232423	1546.437622070313	-1265.56494140625	-24.04584121704102	1543.705078125	-1253.083374023438	-38.28613662719727	1468.160400390625	-1237.211791992188	224.6753234863282	1548.70703125	-1126.016845703125	234.4005126953126	1563.953125	-1024.332397460938	-333.3858337402344	1581.72119140625	-871.3574829101565	-176.4875030517578	1544.732055664063	-772.4937744140627	-146.7107696533203	1560.6416015625	-810.9044189453127	-106.9263153076172	1540.893310546875	-769.732604980469	-46.03453826904298	1540.942626953125	-779.608337402344	-52.40172958374025	1462.1103515625	-795.6219482421877	211.4906158447266	1547.535766601563	-893.048522949219	230.7728118896485	1535.117553710938	-1006.624877929688	-227.4799346923829	1072.253662109375	-1102.96630859375	-231.6468048095704	1069.190307617188	-884.6608886718752	-398.7737426757814	1119.208984375	-995.2529296875002	-400.9253234863282	1084.68798828125	-1020.200012207031	-404.1163024902345	1092.34521484375	-963.5351562500002	-319.0062866210938	827.4846801757815	-1160.025390625	-283.2554321289063	751.1439819335939	-1153.972778320313	-235.5461120605469	755.9714965820314	-1149.8515625	-308.5033569335938	698.6680297851564	-1138.25244140625	-287.7859191894532	540.4743652343751	-1113.8984375	-278.7201232910157	542.3948364257814	-991.7199707031252	-269.9287109375001	370.2797851562501	-1029.438720703125	-297.5564270019532	318.2817077636719	-1095.942260742188	-266.8815002441407	318.5059814453126	-1059.909301757813	-287.0287475585938	243.7837677001954	-1024.128173828125	-344.1726379394532	127.8888244628907	-1060.709106445313	-323.2481384277344	139.0372467041016	-977.5871582031252	-407.8627319335939	111.2797927856446	-1008.332092285156	-203.192611694336	63.22481155395509	-986.342468261719	-201.9051666259766	64.23799896240236	-1033.389526367188	-238.2042236328126	48.53293609619142	-1079.75	-289.5317382812501	796.752380371094	-791.6060791015627	-239.8604431152344	751.3010253906251	-786.4809570312502	-208.1988372802735	758.5155639648439	-791.887390136719	-249.9111328125001	667.2429809570314	-795.5095825195315	-234.2346191406251	556.4103393554689	-793.302673339844	-238.2590637207032	540.3761596679689	-915.9901123046877	-188.081771850586	427.2507934570314	-809.226745605469	-259.7470092773438	360.2480163574219	-758.3963012695314	-218.2422332763672	351.8729858398438	-775.4948730468752	-207.8118743896485	298.9455871582032	-796.3900146484377	-271.9931640625001	146.5562286376953	-767.6546630859376	-328.2561340332032	102.8616104125977	-809.4562988281252	-119.4810867309571	94.77227783203126	-835.0721435546877	-111.5655212402344	93.40744018554689	-798.6733398437502	-147.5616912841797	74.73696899414064	-745.1085205078126	210.9822235107422	1498.890625	-1077.260986328125	-253.5545501708985	149.2248687744141	-851.0716552734377	
346	1.725	-228.0125274658204	1800.888671875	-1038.313842773438	-364.1153259277344	1764.0283203125	-1113.129516601563	-402.9508056640626	1752.957885742188	-952.4624633789065	-417.4112243652345	1570.188232421875	-1034.726318359375	-409.390350341797	1266.804931640625	-1014.655151367188	-276.5250854492188	1540.621215820313	-1031.117919921875	-320.5877075195313	1586.57080078125	-1180.331909179688	-148.9647674560547	1554.866088867188	-1270.349365234375	-125.0980834960938	1565.120971679688	-1226.205200195313	-81.75418090820314	1546.295166015625	-1265.838745117188	-23.9550952911377	1543.613525390625	-1253.317260742188	-38.17234039306641	1468.04296875	-1237.338623046875	224.7166290283204	1548.537109375	-1126.135131835938	234.4117279052735	1563.841796875	-1024.418090820313	-333.4230651855469	1581.913208007813	-871.6748046875002	-176.5663604736328	1545.436767578125	-772.705505371094	-146.6535797119141	1560.748046875	-811.1002197265627	-106.8794021606446	1540.94921875	-769.920104980469	-45.97834777832032	1540.81982421875	-779.732849121094	-52.28237152099611	1462.267333984375	-795.7941894531252	211.4666900634766	1547.556762695313	-893.1354980468752	230.6846160888672	1534.929565429688	-1006.757690429688	-227.5886383056641	1072.216064453125	-1103.11865234375	-231.7449951171876	1069.244873046875	-884.8023071289065	-398.9042053222657	1119.197143554688	-995.4093017578127	-400.978240966797	1084.746215820313	-1020.348022460938	-404.248016357422	1092.43505859375	-963.651794433594	-319.0606994628907	827.3928833007815	-1160.220336914063	-283.3655700683594	751.1553344726564	-1154.093994140625	-235.8460998535157	756.0025024414064	-1150.044555664063	-308.5204772949219	698.6217651367189	-1138.417602539063	-287.4057922363282	540.1091308593751	-1114.108154296875	-278.6721191406251	542.3156738281251	-991.7889404296877	-270.0370178222657	370.3108825683594	-1029.685546875	-297.6415100097657	318.2537841796876	-1096.229370117188	-266.8393554687501	318.8923950195313	-1060.186401367188	-286.9849243164063	243.627670288086	-1024.245849609375	-344.3194885253907	127.8173294067383	-1060.82958984375	-323.1198730468751	139.09375	-977.780944824219	-407.8850708007814	111.273307800293	-1008.388000488281	-203.0900878906251	63.25101470947267	-986.340026855469	-201.8833465576172	64.16640472412111	-1033.494995117188	-238.2669219970704	48.46291732788087	-1079.819458007813	-289.6451110839844	796.7022094726565	-791.7485961914065	-239.7918548583985	751.0692749023439	-786.216003417969	-208.2781372070313	758.4678955078126	-792.0340576171877	-250.0200500488282	667.5536499023439	-796.213806152344	-234.1511535644532	556.2957763671876	-793.664001464844	-238.0102844238282	540.4005737304689	-916.3841552734377	-187.6717681884766	427.3462219238282	-809.598327636719	-259.2691040039063	360.0915832519532	-758.7857055664064	-217.7429656982422	352.0230712890626	-775.6662597656252	-206.9474639892579	299.0604248046876	-796.278259277344	-271.0165405273438	146.5727844238282	-768.2012329101565	-327.3402709960938	102.7488555908203	-809.980651855469	-118.0528793334961	95.33777618408205	-835.0903320312502	-110.6566467285157	93.78916931152345	-798.745544433594	-146.4607086181641	74.50720214843751	-745.5601806640626	211.1854248046876	1500.663452148438	-1077.353881835938	-252.4156799316407	149.250717163086	-851.571472167969	
347	1.73	-227.8596496582032	1800.948608398438	-1038.826416015625	-364.0896911621094	1763.998413085938	-1113.501342773438	-402.9138183593751	1752.981079101563	-952.8618164062502	-417.313446044922	1570.3134765625	-1035.02294921875	-409.4562988281251	1266.81884765625	-1014.757263183594	-276.4287109375001	1540.647216796875	-1031.38330078125	-320.6539916992188	1586.547119140625	-1180.565551757813	-148.9756164550782	1554.67333984375	-1270.511474609375	-125.0339813232422	1564.96630859375	-1226.4716796875	-81.74768066406251	1546.217895507813	-1266.043334960938	-23.92926979064942	1543.461547851563	-1253.494506835938	-38.05053710937501	1467.9375	-1237.5732421875	224.7256622314454	1548.33544921875	-1126.209716796875	234.5355529785157	1563.78466796875	-1024.594604492188	-333.2676391601563	1581.923217773438	-871.9365844726565	-176.3804626464844	1545.20654296875	-772.8702392578127	-146.6571655273438	1560.782348632813	-811.2446899414065	-106.8704605102539	1541.211181640625	-770.187683105469	-45.94969558715821	1540.872802734375	-779.865417480469	-52.28528976440431	1462.35302734375	-795.8640136718752	211.5386962890626	1547.567504882813	-893.264099121094	230.7200927734376	1534.762451171875	-1006.845397949219	-227.5169525146485	1072.267211914063	-1103.303588867188	-231.8193817138672	1069.246826171875	-884.9456176757815	-399.0412902832032	1119.137939453125	-995.5013427734377	-401.1928100585939	1084.6171875	-1020.401977539063	-404.2685852050782	1092.407470703125	-963.7310791015627	-319.2084960937501	827.4114990234377	-1160.425048828125	-283.4130859375001	751.1213989257814	-1154.291137695313	-235.9617462158204	756.0635375976564	-1150.209594726563	-308.5773315429688	698.6358032226564	-1138.545654296875	-287.5030822753907	540.1088256835939	-1114.338623046875	-278.6174926757813	542.3245239257814	-992.0201416015627	-269.8775634765626	370.3976135253907	-1030.026977539063	-297.9017944335938	318.1783752441407	-1096.484008789063	-266.5326538085938	318.8162536621094	-1060.463012695313	-286.9650573730469	243.4301147460938	-1024.459716796875	-344.3894042968751	127.8032760620117	-1060.997924804688	-323.0377197265626	139.1478881835938	-978.0648193359377	-407.9283447265626	111.3253250122071	-1008.451354980469	-203.0306701660157	63.2733840942383	-986.306579589844	-201.9647674560547	64.01876831054689	-1033.567138671875	-238.3781280517579	48.41042327880861	-1079.912841796875	-289.7262878417969	796.6048583984377	-792.026062011719	-239.8576202392579	751.0252075195314	-786.4502563476565	-208.3231506347657	758.4975585937501	-792.1751708984377	-250.0143585205079	667.6182250976564	-796.5203857421877	-234.0188140869141	556.3414916992189	-794.0378417968752	-237.6495208740235	540.4689941406251	-916.702575683594	-187.3015747070313	426.8702392578126	-810.0816040039065	-258.9326477050782	359.7785034179688	-759.6870727539064	-217.2430725097657	352.0521545410157	-775.7781982421877	-206.3260803222657	299.1216430664063	-796.5395507812502	-270.2721862792969	146.41845703125	-768.6802368164065	-326.0740661621094	102.4219741821289	-810.6780395507815	-118.1039962768555	94.76473999023439	-835.840759277344	-109.4551315307617	94.26319885253908	-799.1616210937502	-145.4151611328125	74.81652832031251	-745.9471435546876	210.9724121093751	1500.597412109375	-1077.481323242188	-251.4898834228516	149.2114562988282	-852.1126098632815	
348	1.735	-227.5640563964844	1800.9375	-1039.2138671875	-363.8829650878907	1764.12841796875	-1113.819458007813	-402.9298400878907	1753.043090820313	-953.1859130859377	-417.2746582031251	1570.318725585938	-1035.314453125	-409.507781982422	1266.835815429688	-1014.860473632813	-276.3136901855469	1540.701049804688	-1031.712524414063	-320.5598144531251	1586.528198242188	-1180.809326171875	-150.1192169189453	1554.400634765625	-1269.753295898438	-125.0003890991211	1564.791748046875	-1226.709716796875	-81.5913543701172	1546.085327148438	-1266.476684570313	-23.82537269592286	1543.25	-1253.693237304688	-38.05252838134766	1467.655517578125	-1237.673461914063	224.8422088623047	1548.088623046875	-1126.3046875	234.5291595458985	1563.7373046875	-1024.682861328125	-333.3132324218751	1582.098999023438	-872.215759277344	-176.5340270996094	1545.8037109375	-773.8103637695315	-146.5788116455078	1561.06787109375	-811.567077636719	-106.7696151733399	1541.359497070313	-770.5042114257815	-45.89404296875001	1540.984497070313	-780.0481567382815	-52.26186752319337	1462.458862304688	-795.927185058594	211.6026763916016	1547.574340820313	-893.383483886719	230.760482788086	1534.55419921875	-1006.979370117188	-227.6952362060547	1072.218505859375	-1103.382568359375	-231.9877929687501	1069.247436523438	-885.0853271484377	-399.224822998047	1119.149169921875	-995.6052246093752	-401.2977600097657	1084.763061523438	-1020.508972167969	-404.2204589843751	1092.510864257813	-963.8748168945315	-319.4038391113282	827.462341308594	-1160.438720703125	-283.5279235839844	751.1203002929689	-1154.421020507813	-235.9841918945313	755.9344482421876	-1150.396850585938	-308.7164001464844	698.6359252929689	-1138.736206054688	-287.6454162597657	540.0957031250001	-1114.5341796875	-278.4860839843751	542.3083496093751	-992.3618774414065	-269.6403198242188	370.4723510742188	-1030.434936523438	-298.1442565917969	318.2392272949219	-1096.732299804688	-267.4066772460938	319.8563842773438	-1060.818725585938	-286.9159545898438	243.1756896972657	-1024.647583007813	-344.5749511718751	127.7083129882813	-1061.161254882813	-323.0669250488282	139.281982421875	-978.4617919921877	-407.9197692871095	111.2649002075196	-1008.49951171875	-203.1985015869141	64.25277709960939	-987.199890136719	-202.0470428466797	63.97655868530275	-1033.638549804688	-238.3926544189454	48.27197647094728	-1080.004272460938	-289.8117065429688	796.5061645507815	-792.1779785156252	-239.9031677246094	751.0029296875001	-786.628356933594	-208.292709350586	758.5367431640626	-792.3869628906252	-250.1756134033204	667.8265380859376	-796.9680786132815	-233.8696594238282	556.4382324218751	-794.410827636719	-237.3397369384766	540.5065307617189	-917.0592041015627	-186.8962554931641	426.9896850585939	-810.313171386719	-258.7212219238282	359.7940063476563	-759.8832397460939	-216.7202911376954	352.0909729003907	-776.1176757812502	-205.6980133056641	299.2751770019532	-796.7933349609377	-268.9133300781251	145.9504547119141	-768.9257812500002	-325.0701599121094	102.1117477416992	-811.0464477539065	-115.7920303344727	95.86827087402345	-835.9329833984377	-108.1322860717774	94.27320861816408	-798.6387939453127	-144.3367156982422	75.06409454345705	-746.3855590820314	211.2413330078126	1500.402221679688	-1077.580688476563	-250.3472747802735	149.1184539794922	-852.477722167969	
